<mxfile host="app.diagrams.net" modified="2024-04-18T12:17:25.002Z" agent="Mozilla/5.0 (Windows NT 10.0; Win64; x64) AppleWebKit/537.36 (KHTML, like Gecko) Chrome/123.0.0.0 Safari/537.36" version="24.2.5" etag="oEx81elde4mofzaawDvv" type="github">
  <diagram name="第 1 页" id="BCd0bphv8if6k5UMKy_8">
    <mxGraphModel>
      <root>
        <mxCell id="0" />
        <mxCell id="1" parent="0" />
      </root>
    </mxGraphModel>
  </diagram>
</mxfile>
